<svg width="32" height="32" viewBox="0 0 32 32" fill="none" xmlns="http://www.w3.org/2000/svg">
<path d="M24 9.54663C23.92 9.5333 23.8267 9.5333 23.7467 9.54663C21.9067 9.47996 20.44 7.9733 20.44 6.10663C20.44 4.19996 21.9733 2.66663 23.88 2.66663C25.7867 2.66663 27.32 4.2133 27.32 6.10663C27.3067 7.9733 25.84 9.47996 24 9.54663Z" stroke="white" stroke-width="2" stroke-linecap="round" stroke-linejoin="round"/>
<path d="M22.6267 19.2533C24.4533 19.5599 26.4667 19.2399 27.88 18.2933C29.76 17.0399 29.76 14.9866 27.88 13.7333C26.4533 12.7866 24.4133 12.4666 22.5867 12.7866" stroke="white" stroke-width="2" stroke-linecap="round" stroke-linejoin="round"/>
<path d="M7.96 9.54663C8.04 9.5333 8.13333 9.5333 8.21333 9.54663C10.0533 9.47996 11.52 7.9733 11.52 6.10663C11.52 4.19996 9.98667 2.66663 8.08 2.66663C6.17334 2.66663 4.64 4.2133 4.64 6.10663C4.65333 7.9733 6.12 9.47996 7.96 9.54663Z" stroke="white" stroke-width="2" stroke-linecap="round" stroke-linejoin="round"/>
<path d="M9.33333 19.2533C7.50666 19.5599 5.49333 19.2399 4.08 18.2933C2.2 17.0399 2.2 14.9866 4.08 13.7333C5.50666 12.7866 7.54666 12.4666 9.37333 12.7866" stroke="white" stroke-width="2" stroke-linecap="round" stroke-linejoin="round"/>
<path d="M16 19.5067C15.92 19.4934 15.8267 19.4934 15.7467 19.5067C13.9067 19.44 12.44 17.9334 12.44 16.0667C12.44 14.16 13.9733 12.6267 15.88 12.6267C17.7867 12.6267 19.32 14.1734 19.32 16.0667C19.3067 17.9334 17.84 19.4534 16 19.5067Z" stroke="white" stroke-width="2" stroke-linecap="round" stroke-linejoin="round"/>
<path d="M12.12 23.7067C10.24 24.9601 10.24 27.0134 12.12 28.2667C14.2533 29.6934 17.7467 29.6934 19.88 28.2667C21.76 27.0134 21.76 24.9601 19.88 23.7067C17.76 22.2934 14.2533 22.2934 12.12 23.7067Z" stroke="white" stroke-width="2" stroke-linecap="round" stroke-linejoin="round"/>
</svg>
