<svg width="73" height="72" viewBox="0 0 73 72" fill="none" xmlns="http://www.w3.org/2000/svg">
<mask id="path-1-inside-1_30_1434" fill="white">
<rect x="27.5" y="27" width="17" height="41" rx="0.5"/>
</mask>
<rect x="27.5" y="27" width="17" height="41" rx="0.5" stroke="#121C2D" stroke-width="4" mask="url(#path-1-inside-1_30_1434)"/>
<mask id="path-2-inside-2_30_1434" fill="white">
<rect x="4.5" y="42" width="16" height="26" rx="0.5"/>
</mask>
<rect x="4.5" y="42" width="16" height="26" rx="0.5" stroke="#121C2D" stroke-width="4" mask="url(#path-2-inside-2_30_1434)"/>
<mask id="path-3-inside-3_30_1434" fill="white">
<rect x="51.5" y="42" width="16" height="26" rx="0.5"/>
</mask>
<rect x="51.5" y="42" width="16" height="26" rx="0.5" stroke="#121C2D" stroke-width="4" mask="url(#path-3-inside-3_30_1434)"/>
<circle cx="12.5" cy="30" r="7" stroke="#121C2D" stroke-width="2"/>
<path d="M12.2622 26.7317C12.3371 26.5013 12.6629 26.5013 12.7378 26.7317L13.342 28.5911C13.3755 28.6941 13.4715 28.7638 13.5798 28.7638L15.5349 28.7639C15.7771 28.7639 15.8778 29.0738 15.6818 29.2162L14.1001 30.3654C14.0125 30.4291 13.9759 30.5419 14.0093 30.6449L14.6134 32.5044C14.6883 32.7347 14.4247 32.9262 14.2287 32.7839L12.6469 31.6347C12.5593 31.5711 12.4407 31.5711 12.3531 31.6347L10.7713 32.7839C10.5753 32.9262 10.3117 32.7347 10.3866 32.5044L10.9907 30.6449C11.0241 30.5419 10.9875 30.4291 10.8999 30.3654L9.31815 29.2162C9.12224 29.0738 9.22292 28.7639 9.4651 28.7639L11.4202 28.7638C11.5285 28.7638 11.6245 28.6941 11.658 28.5911L12.2622 26.7317Z" fill="#121C2D"/>
<circle cx="59.5" cy="30" r="7" stroke="#121C2D" stroke-width="2"/>
<path d="M59.2622 26.7317C59.3371 26.5013 59.6629 26.5013 59.7378 26.7317L60.342 28.5911C60.3755 28.6941 60.4715 28.7638 60.5798 28.7638L62.5349 28.7639C62.7771 28.7639 62.8778 29.0738 62.6818 29.2162L61.1001 30.3654C61.0125 30.4291 60.9759 30.5419 61.0093 30.6449L61.6134 32.5044C61.6883 32.7347 61.4247 32.9262 61.2287 32.7839L59.6469 31.6347C59.5593 31.5711 59.4407 31.5711 59.3531 31.6347L57.7713 32.7839C57.5753 32.9262 57.3117 32.7347 57.3866 32.5044L57.9907 30.6449C58.0241 30.5419 57.9875 30.4291 57.8999 30.3654L56.3182 29.2162C56.1222 29.0738 56.2229 28.7639 56.4651 28.7639L58.4202 28.7638C58.5285 28.7638 58.6245 28.6941 58.658 28.5911L59.2622 26.7317Z" fill="#121C2D"/>
<circle cx="36" cy="14" r="9" fill="#88DAB5" stroke="#121C2D" stroke-width="2"/>
<path d="M35.7622 11.7317C35.8371 11.5013 36.1629 11.5013 36.2378 11.7317L36.842 13.5911C36.8755 13.6941 36.9715 13.7638 37.0798 13.7638L39.0349 13.7639C39.2771 13.7639 39.3778 14.0738 39.1818 14.2162L37.6001 15.3654C37.5125 15.4291 37.4759 15.5419 37.5093 15.6449L38.1134 17.5044C38.1883 17.7347 37.9247 17.9262 37.7287 17.7839L36.1469 16.6347C36.0593 16.5711 35.9407 16.5711 35.8531 16.6347L34.2713 17.7839C34.0753 17.9262 33.8117 17.7347 33.8866 17.5044L34.4907 15.6449C34.5241 15.5419 34.4875 15.4291 34.3999 15.3654L32.8182 14.2162C32.6222 14.0738 32.7229 13.7639 32.9651 13.7639L34.9202 13.7638C35.0285 13.7638 35.1245 13.6941 35.158 13.5911L35.7622 11.7317Z" fill="white"/>
<path d="M36 7.52942V9.29412" stroke="white" stroke-linecap="round"/>
<path d="M30.7059 9.88232L31.5882 11.4106" stroke="white" stroke-linecap="round"/>
<path d="M41 9.88232L40.1176 11.4106" stroke="white" stroke-linecap="round"/>
</svg>
