<svg width="32" height="32" viewBox="0 0 32 32" fill="none" xmlns="http://www.w3.org/2000/svg">
<path d="M10.6666 12.6667C9.74617 12.6667 8.99998 13.4129 8.99998 14.3334C8.99998 15.2539 9.74617 16.0001 10.6666 16.0001C11.5871 16.0001 12.3333 15.2539 12.3333 14.3334C12.3333 13.4129 11.5871 12.6667 10.6666 12.6667Z" fill="white"/>
<path d="M16 12.6667C15.0795 12.6667 14.3333 13.4129 14.3333 14.3334C14.3333 15.2539 15.0795 16.0001 16 16.0001C16.9205 16.0001 17.6666 15.2539 17.6666 14.3334C17.6666 13.4129 16.9205 12.6667 16 12.6667Z" fill="white"/>
<path d="M19.6666 14.3334C19.6666 13.4129 20.4128 12.6667 21.3333 12.6667C22.2538 12.6667 23 13.4129 23 14.3334C23 15.2539 22.2538 16.0001 21.3333 16.0001C20.4128 16.0001 19.6666 15.2539 19.6666 14.3334Z" fill="white"/>
<path fill-rule="evenodd" clip-rule="evenodd" d="M21.4676 6.12377C17.8754 5.81743 14.2643 5.79965 10.6692 6.07061L10.4116 6.09003C6.98319 6.34842 4.33331 9.20553 4.33331 12.6437V24.0001C4.33331 24.3519 4.5182 24.6778 4.82018 24.8584C5.12215 25.0389 5.49679 25.0475 5.8067 24.8809L11.0211 22.0786C11.2636 21.9483 11.5347 21.8801 11.8101 21.8801H23.7786C25.2881 21.8801 26.5816 20.8009 26.8522 19.3159C27.4006 16.3062 27.4439 13.2263 26.9804 10.2024L26.8438 9.31128C26.5951 7.68895 25.2679 6.44786 23.6326 6.3084L21.4676 6.12377ZM10.8195 8.06495C14.308 7.80203 17.812 7.81928 21.2977 8.11654L23.4627 8.30117C24.1778 8.36215 24.7582 8.90487 24.8669 9.61431L25.0035 10.5054C25.4333 13.3098 25.3932 16.1662 24.8846 18.9574C24.7872 19.4917 24.3218 19.8801 23.7786 19.8801H11.8101C11.2043 19.8801 10.6079 20.0301 10.0743 20.3169L6.33331 22.3274V12.6437C6.33331 10.2518 8.1768 8.26413 10.5619 8.08437L10.8195 8.06495Z" fill="white"/>
</svg>
