<svg width="73" height="72" viewBox="0 0 73 72" fill="none" xmlns="http://www.w3.org/2000/svg">
<circle cx="36.5" cy="16" r="12" fill="#88DAB5"/>
<circle cx="36.5" cy="16" r="11" stroke="#121C2D" stroke-width="2"/>
<path fill-rule="evenodd" clip-rule="evenodd" d="M37.1123 8.92856C37.1123 8.57352 36.8381 8.28571 36.5 8.28571C36.1619 8.28571 35.8878 8.57352 35.8878 8.92856V10.8571H34.9694C34.2387 10.8571 33.5379 11.1619 33.0212 11.7044C32.5046 12.2469 32.2143 12.9828 32.2143 13.75C32.2143 14.5172 32.5046 15.253 33.0212 15.7955C33.5379 16.3381 34.2387 16.6428 34.9694 16.6428H35.8878V19.8571H32.8265C32.4884 19.8571 32.2143 20.145 32.2143 20.5C32.2143 20.855 32.4884 21.1428 32.8265 21.1428H35.8878V23.0714C35.8878 23.4265 36.1619 23.7143 36.5 23.7143C36.8381 23.7143 37.1123 23.4265 37.1123 23.0714V21.1428H38.0306C38.7613 21.1428 39.4621 20.8381 39.9788 20.2955C40.4955 19.753 40.7857 19.0172 40.7857 18.25C40.7857 17.4828 40.4955 16.7469 39.9788 16.2044C39.4621 15.6619 38.7613 15.3571 38.0306 15.3571H37.1123V12.1428H39.5612C39.8994 12.1428 40.1735 11.855 40.1735 11.5C40.1735 11.145 39.8994 10.8571 39.5612 10.8571H37.1123V8.92856ZM35.8878 12.1428H34.9694C34.5635 12.1428 34.1741 12.3122 33.8871 12.6136C33.6 12.915 33.4388 13.3238 33.4388 13.75C33.4388 14.1762 33.6 14.585 33.8871 14.8864C34.1741 15.1878 34.5635 15.3571 34.9694 15.3571H35.8878V12.1428ZM37.1123 16.6428V19.8571H38.0306C38.4366 19.8571 38.8259 19.6878 39.1129 19.3864C39.4 19.085 39.5612 18.6762 39.5612 18.25C39.5612 17.8237 39.4 17.415 39.1129 17.1136C38.8259 16.8122 38.4366 16.6428 38.0306 16.6428H37.1123Z" fill="white"/>
<mask id="path-4-inside-1_30_1420" fill="white">
<rect x="4.5" y="35" width="13" height="33" rx="0.5"/>
</mask>
<rect x="4.5" y="35" width="13" height="33" rx="0.5" stroke="#121C2D" stroke-width="4" mask="url(#path-4-inside-1_30_1420)"/>
<mask id="path-5-inside-2_30_1420" fill="white">
<rect x="22.5" y="43" width="13" height="25" rx="0.5"/>
</mask>
<rect x="22.5" y="43" width="13" height="25" rx="0.5" stroke="#121C2D" stroke-width="4" mask="url(#path-5-inside-2_30_1420)"/>
<mask id="path-6-inside-3_30_1420" fill="white">
<rect x="40.5" y="47" width="12" height="21" rx="0.5"/>
</mask>
<rect x="40.5" y="47" width="12" height="21" rx="0.5" stroke="#121C2D" stroke-width="4" mask="url(#path-6-inside-3_30_1420)"/>
<mask id="path-7-inside-4_30_1420" fill="white">
<rect x="56.5" y="53" width="12" height="15" rx="0.5"/>
</mask>
<rect x="56.5" y="53" width="12" height="15" rx="0.5" stroke="#121C2D" stroke-width="4" mask="url(#path-7-inside-4_30_1420)"/>
<path d="M7.076 21.1826C6.62455 20.8644 6.00068 20.9725 5.68254 21.424C5.36441 21.8754 5.47248 22.4993 5.92393 22.8174L7.076 21.1826ZM33 36.5L33.3149 35.5509L33 36.5ZM66.5 40.5L56.667 34.4464L56.341 45.9888L66.5 40.5ZM6.49997 22C5.92393 22.8174 5.92407 22.8175 5.92425 22.8177C5.9244 22.8178 5.92464 22.8179 5.92493 22.8181C5.92549 22.8185 5.92628 22.8191 5.92731 22.8198C5.92937 22.8213 5.93235 22.8233 5.93625 22.8261C5.94404 22.8316 5.9555 22.8396 5.97056 22.8502C6.00067 22.8712 6.04515 22.9023 6.10341 22.9429C6.21993 23.0239 6.39159 23.1428 6.61363 23.2952C7.05768 23.5999 7.70341 24.0385 8.51284 24.5761C10.1313 25.6511 12.4063 27.1231 15.0338 28.7123C20.2704 31.8796 26.9749 35.5541 32.685 37.4491L33.3149 35.5509C27.8287 33.7302 21.2832 30.1548 16.0689 27.001C13.4709 25.4296 11.2202 23.9733 9.61937 22.9101C8.81914 22.3786 8.1818 21.9457 7.7452 21.6461C7.52692 21.4963 7.35885 21.3799 7.24573 21.3012C7.18917 21.2618 7.14635 21.2319 7.11786 21.212C7.10362 21.202 7.09296 21.1945 7.08596 21.1896C7.08246 21.1871 7.07987 21.1853 7.07821 21.1841C7.07738 21.1835 7.07678 21.1831 7.07641 21.1829C7.07623 21.1827 7.07613 21.1827 7.07603 21.1826C7.07599 21.1826 7.076 21.1826 6.49997 22ZM32.685 37.4491C40.0515 39.8938 50.2348 40.8593 57.4487 41.2444L57.5553 39.2473C50.3546 38.8628 40.406 37.9041 33.3149 35.5509L32.685 37.4491Z" fill="#121C2D"/>
</svg>
