<svg width="73" height="72" viewBox="0 0 73 72" fill="none" xmlns="http://www.w3.org/2000/svg">
<path fill-rule="evenodd" clip-rule="evenodd" d="M30.4162 8C30.4162 7.44772 30.8639 7 31.4162 7H41.4162C41.9684 7 42.4162 7.44772 42.4162 8V9C42.4162 9.55228 41.9684 10 41.4162 10H38.4162V14.0788C42.238 14.3813 45.8179 15.5433 48.9626 17.3715C48.962 17.1345 49.0451 16.8963 49.2149 16.7051L51.2067 14.4618C51.5734 14.0488 52.2055 14.0113 52.6185 14.378L58.6006 19.6897C59.0136 20.0564 59.0511 20.6884 58.6844 21.1014L56.6926 23.3447C56.546 23.5098 56.357 23.6149 56.1566 23.6581C59.4529 27.8934 61.4162 33.2174 61.4162 39C61.4162 52.8071 50.2233 64 36.4162 64C26.1536 64 17.3376 57.8167 13.4861 48.9757L8.61243 49.9025L12.4162 39L19.9562 47.7454L15.5052 48.5918C19.1418 56.5065 27.1385 62 36.4162 62C49.1187 62 59.4162 51.7025 59.4162 39C59.4162 26.2975 49.1187 16 36.4162 16C29.3762 16 23.0757 19.1617 18.8552 24.1462L17.3288 22.8538C21.5098 17.916 27.5757 14.6205 34.4162 14.0789V10H31.4162C30.8639 10 30.4162 9.55228 30.4162 9V8ZM36 39V37V25V23C36.6773 23 37.3448 23.0421 38 23.1238C45.8926 24.108 52 30.8408 52 39C52 47.8366 44.8366 55 36 55C27.8408 55 21.108 48.8926 20.1238 41C20.0421 40.3448 20 39.6773 20 39H22H34H36ZM38 39V25.1418C44.7846 26.1122 50 31.9471 50 39C50 46.732 43.732 53 36 53C28.9471 53 23.1122 47.7846 22.1418 41H36H38V39Z" fill="#121C2D"/>
<circle cx="51.5" cy="55" r="12" fill="#88DAB5" stroke="#121C2D" stroke-width="2"/>
<path fill-rule="evenodd" clip-rule="evenodd" d="M51.5 52C49.8431 52 48.5 53.3431 48.5 55C48.5 56.6569 49.8431 58 51.5 58C53.1569 58 54.5 56.6569 54.5 55C54.5 53.3431 53.1569 52 51.5 52ZM50 55C50 54.1716 50.6716 53.5 51.5 53.5C52.3284 53.5 53 54.1716 53 55C53 55.8284 52.3284 56.5 51.5 56.5C50.6716 56.5 50 55.8284 50 55Z" fill="white"/>
<path fill-rule="evenodd" clip-rule="evenodd" d="M57.7361 57.5528L57.05 57.25L57.7394 57.5454C57.7768 57.4581 57.839 57.3835 57.9183 57.331C57.9972 57.2787 58.0897 57.2506 58.1844 57.25H58.25C58.8467 57.25 59.419 57.0129 59.841 56.591C60.2629 56.169 60.5 55.5967 60.5 55C60.5 54.4033 60.2629 53.831 59.841 53.409C59.419 52.9871 58.8467 52.75 58.25 52.75H58.1244C58.0297 52.7494 57.9372 52.7213 57.8583 52.669C57.8051 52.6337 57.7596 52.5886 57.7241 52.5363C57.7134 52.4852 57.6973 52.4352 57.6761 52.3872C57.6368 52.2981 57.6251 52.1992 57.6425 52.1034C57.6596 52.0086 57.7045 51.921 57.7714 51.8517L57.8125 51.8106C58.0216 51.6017 58.1877 51.3534 58.3009 51.0804C58.4141 50.8072 58.4724 50.5144 58.4724 50.2188C58.4724 49.9231 58.4141 49.6303 58.3009 49.3571C58.1878 49.0842 58.022 48.8363 57.8131 48.6275C57.6042 48.4183 57.356 48.2523 57.0829 48.1391C56.8097 48.0259 56.5169 47.9676 56.2212 47.9676C55.9256 47.9676 55.6328 48.0259 55.3596 48.1391C55.0865 48.2523 54.8383 48.4183 54.6294 48.6275L54.5883 48.6686C54.519 48.7355 54.4314 48.7803 54.3366 48.7975C54.2408 48.8149 54.1419 48.8032 54.0528 48.7639L54.0454 48.7606C53.9581 48.7232 53.8835 48.661 53.831 48.5817C53.7787 48.5028 53.7506 48.4103 53.75 48.3156V48.25C53.75 47.6533 53.5129 47.081 53.091 46.659C52.669 46.2371 52.0967 46 51.5 46C50.9033 46 50.331 46.2371 49.909 46.659C49.4871 47.081 49.25 47.6533 49.25 48.25V48.3756C49.2494 48.4703 49.2212 48.5628 49.169 48.6417C49.1337 48.6949 49.0886 48.7404 49.0363 48.7759C48.9852 48.7866 48.9352 48.8027 48.8872 48.8239C48.7981 48.8632 48.6992 48.8749 48.6034 48.8575C48.5086 48.8403 48.421 48.7955 48.3517 48.7286L48.3106 48.6875C48.1017 48.4783 47.8535 48.3123 47.5804 48.1991C47.3072 48.0859 47.0144 48.0276 46.7187 48.0276C46.4231 48.0276 46.1303 48.0859 45.8571 48.1991C45.5841 48.3123 45.3361 48.4781 45.1272 48.6872C44.9181 48.8961 44.7523 49.1441 44.6391 49.4171C44.5258 49.6903 44.4676 49.9831 44.4676 50.2787C44.4676 50.5744 44.5258 50.8672 44.6391 51.1404C44.7523 51.4135 44.9183 51.6617 45.1275 51.8706L45.1686 51.9117C45.2355 51.981 45.2803 52.0686 45.2975 52.1634C45.3149 52.2592 45.3032 52.3581 45.2638 52.4472C45.2575 52.4616 45.2515 52.4763 45.2461 52.4911C45.2123 52.5829 45.1517 52.6624 45.0722 52.7194C44.9944 52.7749 44.9021 52.8064 44.8067 52.81H44.75C44.1533 52.81 43.581 53.0471 43.159 53.469C42.737 53.891 42.5 54.4633 42.5 55.06C42.5 55.6567 42.737 56.229 43.159 56.651C43.581 57.0729 44.1533 57.31 44.75 57.31H44.8756C44.9703 57.3106 45.0628 57.3387 45.1417 57.391C45.221 57.4435 45.2832 57.5181 45.3206 57.6054L45.3238 57.6128C45.3632 57.7019 45.3749 57.8008 45.3575 57.8966C45.3403 57.9914 45.2955 58.079 45.2286 58.1483L45.1875 58.1894C44.9783 58.3983 44.8123 58.6465 44.6991 58.9196C44.5858 59.1928 44.5276 59.4856 44.5276 59.7812C44.5276 60.0769 44.5858 60.3697 44.6991 60.6429C44.8123 60.916 44.9783 61.1642 45.1875 61.3731C45.3963 61.582 45.6442 61.7478 45.9171 61.8609C46.1903 61.9741 46.4831 62.0324 46.7787 62.0324C47.0744 62.0324 47.3672 61.9741 47.6404 61.8609C47.9134 61.7477 48.1614 61.5819 48.3703 61.3728L48.4117 61.3314C48.481 61.2645 48.5686 61.2197 48.6634 61.2025C48.7592 61.1851 48.8581 61.1968 48.9472 61.2361C48.9616 61.2425 48.9763 61.2484 48.9911 61.2539C49.0829 61.2877 49.1624 61.3483 49.2194 61.4278C49.2749 61.5056 49.3064 61.5979 49.31 61.6933V61.75C49.31 62.3467 49.547 62.919 49.969 63.341C50.391 63.7629 50.9633 64 51.56 64C52.1567 64 52.729 63.7629 53.151 63.341C53.5729 62.919 53.81 62.3467 53.81 61.75V61.6244C53.8106 61.5297 53.8387 61.4372 53.891 61.3583C53.9435 61.279 54.0181 61.2168 54.1054 61.1794L54.1128 61.1761C54.2019 61.1368 54.3008 61.1251 54.3966 61.1425C54.4914 61.1597 54.579 61.2045 54.6482 61.2714L54.6894 61.3125C54.8983 61.5216 55.1466 61.6877 55.4196 61.8009C55.6928 61.9141 55.9856 61.9724 56.2812 61.9724C56.5769 61.9724 56.8697 61.9141 57.1429 61.8009C57.4159 61.6877 57.6639 61.5219 57.8728 61.3128C58.0819 61.1039 58.2477 60.8559 58.3609 60.5829C58.4741 60.3097 58.5324 60.0169 58.5324 59.7213C58.5324 59.4256 58.4741 59.1328 58.3609 58.8596C58.2477 58.5866 58.0819 58.3386 57.8728 58.1297L57.8314 58.0882C57.7645 58.019 57.7196 57.9314 57.7025 57.8366C57.6851 57.7408 57.6968 57.6419 57.7361 57.5528ZM50.9697 47.7197C51.1103 47.579 51.3011 47.5 51.5 47.5C51.6989 47.5 51.8897 47.579 52.0303 47.7197C52.171 47.8603 52.25 48.0511 52.25 48.25V48.3175L52.25 48.3205C52.2515 48.7081 52.3664 49.0868 52.5804 49.41C52.7937 49.732 53.0962 49.9849 53.4508 50.1378C53.8132 50.2968 54.2148 50.3441 54.6042 50.2735C54.995 50.2026 55.3556 50.0163 55.6394 49.7386L55.6453 49.7328L55.6903 49.6878C55.76 49.6181 55.843 49.5625 55.934 49.5247C56.0251 49.487 56.1227 49.4676 56.2212 49.4676C56.3198 49.4676 56.4174 49.487 56.5085 49.5247C56.5995 49.5625 56.6822 49.6178 56.7519 49.6875L56.7525 49.6881C56.8222 49.7578 56.8775 49.8405 56.9153 49.9315C56.953 50.0226 56.9724 50.1202 56.9724 50.2188C56.9724 50.3173 56.953 50.4149 56.9153 50.506C56.8775 50.597 56.8222 50.6797 56.7525 50.7494L56.7072 50.7947L56.7013 50.8006C56.4237 51.0844 56.2374 51.445 56.1665 51.8358C56.105 52.175 56.133 52.5235 56.2463 52.8472C56.2552 52.9153 56.2735 52.982 56.3006 53.0454C56.4533 53.4017 56.7069 53.7056 57.03 53.9196C57.3532 54.1336 57.7319 54.2484 58.1195 54.25L58.1225 54.25H58.25C58.4489 54.25 58.6397 54.329 58.7803 54.4697C58.921 54.6103 59 54.8011 59 55C59 55.1989 58.921 55.3897 58.7803 55.5303C58.6397 55.671 58.4489 55.75 58.25 55.75L58.1825 55.75L58.1795 55.75C57.7919 55.7516 57.4132 55.8664 57.09 56.0804C56.768 56.2937 56.5151 56.5962 56.3622 56.9509C56.2032 57.3133 56.1559 57.7148 56.2265 58.1042C56.2974 58.495 56.4837 58.8556 56.7613 59.1394L56.7672 59.1453L56.8122 59.1903C56.8819 59.26 56.9375 59.343 56.9753 59.434C57.013 59.5251 57.0324 59.6227 57.0324 59.7213C57.0324 59.8198 57.013 59.9174 56.9753 60.0085C56.9375 60.0995 56.8822 60.1822 56.8125 60.2519L56.8119 60.2525C56.7422 60.3222 56.6595 60.3775 56.5685 60.4153C56.4774 60.453 56.3798 60.4724 56.2812 60.4724C56.1827 60.4724 56.0851 60.453 55.994 60.4153C55.903 60.3775 55.8203 60.3222 55.7506 60.2525L55.7053 60.2072L55.6994 60.2014C55.4156 59.9237 55.055 59.7374 54.6642 59.6665C54.2748 59.5959 53.8733 59.6432 53.5109 59.8022C53.1562 59.9551 52.8537 60.208 52.6404 60.53C52.4264 60.8532 52.3115 61.2319 52.31 61.6195L52.31 61.6225V61.75C52.31 61.9489 52.231 62.1397 52.0903 62.2803C51.9497 62.421 51.7589 62.5 51.56 62.5C51.3611 62.5 51.1703 62.421 51.0297 62.2803C50.889 62.1397 50.81 61.9489 50.81 61.75V61.6825L50.8098 61.665C50.8005 61.2663 50.6714 60.8796 50.4394 60.5552C50.212 60.2373 49.896 59.9936 49.5311 59.8544C49.1735 59.7017 48.7787 59.6571 48.3957 59.7265C48.005 59.7974 47.6444 59.9837 47.3605 60.2614L47.3547 60.2672L47.3097 60.3122C47.24 60.3819 47.157 60.4375 47.066 60.4753C46.9749 60.513 46.8773 60.5324 46.7787 60.5324C46.6802 60.5324 46.5826 60.513 46.4915 60.4753C46.4005 60.4375 46.3178 60.3822 46.2481 60.3125L46.2475 60.3119C46.1778 60.2422 46.1225 60.1595 46.0847 60.0685C46.047 59.9774 46.0276 59.8798 46.0276 59.7812C46.0276 59.6827 46.047 59.5851 46.0847 59.494C46.1225 59.403 46.1778 59.3203 46.2475 59.2506L46.2928 59.2053L46.2986 59.1994C46.5763 58.9156 46.7626 58.555 46.8335 58.1642C46.9041 57.7748 46.8568 57.3732 46.6978 57.0108C46.5449 56.6562 46.292 56.3537 45.97 56.1404C45.6468 55.9264 45.2681 55.8116 44.8805 55.81L44.8775 55.81H44.75C44.5511 55.81 44.3603 55.731 44.2197 55.5903C44.079 55.4497 44 55.2589 44 55.06C44 54.8611 44.079 54.6703 44.2197 54.5297C44.3603 54.389 44.5511 54.31 44.75 54.31H44.8175L44.835 54.3098C45.2337 54.3005 45.6204 54.1714 45.9448 53.9394C46.2627 53.712 46.5064 53.396 46.6456 53.0311C46.7983 52.6735 46.8429 52.2787 46.7735 51.8958C46.7026 51.505 46.5163 51.1444 46.2386 50.8606L46.2328 50.8547L46.1878 50.8097C46.1181 50.74 46.0625 50.657 46.0247 50.566C45.987 50.4749 45.9676 50.3773 45.9676 50.2787C45.9676 50.1802 45.987 50.0826 46.0247 49.9915C46.0625 49.9005 46.1178 49.8178 46.1875 49.7481L46.1881 49.7475C46.2578 49.6778 46.3405 49.6225 46.4315 49.5847C46.5226 49.547 46.6202 49.5276 46.7187 49.5276C46.8173 49.5276 46.9149 49.547 47.006 49.5847C47.097 49.6225 47.1797 49.6778 47.2494 49.7475L47.2947 49.7928L47.3005 49.7986C47.5844 50.0763 47.945 50.2626 48.3357 50.3335C48.675 50.395 49.0235 50.367 49.3472 50.2537C49.4153 50.2448 49.482 50.2265 49.5454 50.1994C49.9017 50.0467 50.2056 49.7931 50.4196 49.47C50.6336 49.1468 50.7484 48.7681 50.75 48.3805L50.75 48.3775V48.25C50.75 48.0511 50.829 47.8603 50.9697 47.7197Z" fill="white"/>
</svg>
