<svg width="382" height="400" viewBox="0 0 382 400" fill="none" xmlns="http://www.w3.org/2000/svg">
<path d="M97 200H285" stroke="#88DAB5" stroke-opacity="0.3" stroke-linecap="round" stroke-linejoin="round" stroke-dasharray="8 8"/>
<path d="M143.713 274.715L237.351 124.893" stroke="#88DAB5" stroke-opacity="0.3" stroke-linecap="round" stroke-linejoin="round" stroke-dasharray="8 8"/>
<path d="M237.351 274.715L143.713 124.893" stroke="#88DAB5" stroke-opacity="0.3" stroke-linecap="round" stroke-linejoin="round" stroke-dasharray="8 8"/>
<circle cx="190.5" cy="199.5" r="144" stroke="#88DAB5" stroke-opacity="0.6" stroke-linecap="round" stroke-linejoin="round" stroke-dasharray="12 12"/>
<path d="M343.5 200C343.5 284.222 275.001 352.5 190.5 352.5C105.999 352.5 37.5 284.222 37.5 200C37.5 115.778 105.999 47.5 190.5 47.5C275.001 47.5 343.5 115.778 343.5 200Z" stroke="#88DAB5" stroke-linecap="round" stroke-linejoin="round"/>
<circle cx="191.183" cy="200.183" r="56.1832" fill="white"/>
<circle cx="191.565" cy="200.565" r="50.5649" fill="#88DAB5" fill-opacity="0.2"/>
<circle cx="191.074" cy="200.074" r="43.0738" fill="#88DAB5" fill-opacity="0.2"/>
<circle cx="190.71" cy="199.71" r="33.7099" fill="#88DAB5"/>
<path d="M216.42 200.251H218.954V205.999C218.212 206.589 217.347 207.043 216.358 207.359C215.369 207.674 214.353 207.832 213.309 207.832C211.84 207.832 210.515 207.516 209.333 206.885C208.152 206.239 207.225 205.353 206.552 204.227C205.879 203.101 205.543 201.831 205.543 200.416C205.543 199.002 205.879 197.731 206.552 196.605C207.225 195.479 208.152 194.6 209.333 193.968C210.528 193.323 211.867 193 213.351 193C214.559 193 215.658 193.199 216.647 193.597C217.635 193.996 218.466 194.579 219.139 195.348L217.45 196.996C216.351 195.898 215.026 195.348 213.474 195.348C212.458 195.348 211.551 195.561 210.755 195.987C209.972 196.413 209.354 197.01 208.901 197.779C208.461 198.548 208.242 199.427 208.242 200.416C208.242 201.378 208.461 202.243 208.901 203.012C209.354 203.781 209.972 204.385 210.755 204.825C211.551 205.264 212.451 205.484 213.454 205.484C214.58 205.484 215.569 205.237 216.42 204.742V200.251Z" fill="white"/>
<path d="M205.212 193.206L198.929 207.626H196.292L189.989 193.206H192.893L197.693 204.33L202.534 193.206H205.212Z" fill="white"/>
<path d="M182.762 195.472H177.983V193.206H190.219V195.472H185.44V207.626H182.762V195.472Z" fill="white"/>
<path d="M171.705 207.832C170.249 207.832 168.93 207.516 167.749 206.885C166.582 206.239 165.662 205.353 164.989 204.227C164.33 203.101 164 201.831 164 200.416C164 199.002 164.336 197.731 165.009 196.605C165.682 195.479 166.603 194.6 167.77 193.968C168.951 193.323 170.269 193 171.725 193C172.906 193 173.984 193.206 174.959 193.618C175.935 194.03 176.759 194.627 177.432 195.41L175.701 197.038C174.657 195.912 173.373 195.348 171.849 195.348C170.86 195.348 169.974 195.568 169.191 196.008C168.409 196.433 167.797 197.031 167.358 197.8C166.918 198.569 166.699 199.441 166.699 200.416C166.699 201.391 166.918 202.263 167.358 203.032C167.797 203.802 168.409 204.406 169.191 204.845C169.974 205.271 170.86 205.484 171.849 205.484C173.373 205.484 174.657 204.914 175.701 203.774L177.432 205.422C176.759 206.205 175.928 206.802 174.939 207.214C173.964 207.626 172.886 207.832 171.705 207.832Z" fill="white"/>
<g filter="url(#filter0_d_209_1375)">
<rect x="7" y="155" width="90" height="89" rx="8" fill="white" shape-rendering="crispEdges"/>
<rect x="7.5" y="155.5" width="89" height="88" rx="7.5" stroke="white" stroke-opacity="0.3" shape-rendering="crispEdges"/>
<circle cx="52" cy="200" r="36" fill="#D7E7FA"/>
<path d="M41.4157 187.213L40.57 186.489C40.2484 186.213 39.7687 186.231 39.4691 186.531L30.7865 195.214C30.3427 195.657 30.3154 196.368 30.7238 196.844L31.9001 198.217C32.6185 199.055 33.0829 200.08 33.239 201.173C33.4088 202.362 33.9431 203.468 34.7682 204.341L50.2021 220.656C50.7114 221.195 51.4199 221.5 52.1611 221.5H52.1964C53.5182 221.5 54.6388 220.528 54.8258 219.22C54.9363 218.446 54.7006 217.663 54.1816 217.079L51 213.5L56.0349 218.535C56.6405 219.141 57.5014 219.416 58.3463 219.276C59.3564 219.107 60.1793 218.373 60.4606 217.388L60.5179 217.187C60.8155 216.146 60.525 215.025 59.7591 214.259L54.5 209L61.5201 215.143C62.1404 215.685 62.9714 215.921 63.7844 215.786C64.8322 215.611 65.686 214.849 65.9778 213.828L66.0179 213.687C66.3155 212.646 66.025 211.525 65.2591 210.759L60 205.5L65.4787 210.557C66.1263 211.155 67.0046 211.437 67.8792 211.328L68.1876 211.289C69.5086 211.124 70.5 210.001 70.5 208.67C70.5 207.925 70.1854 207.215 69.6336 206.714L51.1073 189.911C49.7789 188.706 47.9655 188.188 46.2009 188.509C44.4921 188.82 42.7344 188.344 41.4157 187.213Z" fill="white" stroke="#121C2D" stroke-linecap="round"/>
<rect x="36.3241" y="177.707" width="8" height="20.799" rx="1.5" transform="rotate(44.6503 36.3241 177.707)" fill="#88DAB5" stroke="#121C2D"/>
<rect x="-0.00431615" y="0.707094" width="8" height="20.799" rx="1.5" transform="matrix(-0.71141 0.702777 0.702777 0.71141 66.8984 178.207)" fill="#88DAB5" stroke="#121C2D"/>
<rect x="30.7069" y="208.227" width="8" height="4.20071" rx="2.10035" transform="rotate(-43.6292 30.7069 208.227)" fill="white" stroke="#121C2D"/>
<rect x="32.7069" y="213.171" width="12.2671" height="4.47698" rx="2.23849" transform="rotate(-43.6292 32.7069 213.171)" fill="white" stroke="#121C2D"/>
<rect x="37.6694" y="215.767" width="8.89769" height="4.47698" rx="2.23849" transform="rotate(-43.6292 37.6694 215.767)" fill="white" stroke="#121C2D"/>
<rect x="42.2306" y="218.233" width="6.67522" height="4.47698" rx="2.23849" transform="rotate(-43.6292 42.2306 218.233)" fill="white" stroke="#121C2D"/>
<path d="M53.7 194.98L54.3626 194.582C54.4539 194.528 54.538 194.462 54.6133 194.387C55.1082 193.892 55.906 193.877 56.4189 194.353L68.4347 205.511C68.9044 205.947 69.6703 205.705 69.8046 205.079L70.3788 202.399C70.7813 200.521 71.802 198.832 73.2777 197.602C73.6656 197.279 73.6922 196.692 73.3352 196.335L64.4714 187.471C64.1994 187.199 63.7705 187.164 63.4575 187.388C61.581 188.728 59.2112 189.178 56.9741 188.619L56.6382 188.535C55.2457 188.186 53.7803 188.27 52.4363 188.774C51.1719 189.248 50.0695 190.074 49.2592 191.154L47.5284 193.462C46.5917 194.711 46.441 196.382 47.1392 197.778L48.1263 199.753C48.8241 201.148 50.6476 201.516 51.8322 200.501C52.5439 199.891 52.835 198.922 52.5775 198.021L52.5447 197.906C52.2234 196.782 52.6972 195.582 53.7 194.98Z" fill="white" stroke="#121C2D" stroke-linecap="round"/>
</g>
<g filter="url(#filter1_d_209_1375)">
<rect x="236" y="274" width="89" height="91" rx="8" fill="white" shape-rendering="crispEdges"/>
<rect x="236.5" y="274.5" width="88" height="90" rx="7.5" stroke="white" stroke-opacity="0.3" shape-rendering="crispEdges"/>
<circle cx="281" cy="320" r="36" fill="#D7E7FA"/>
<rect x="269.5" y="306.5" width="33" height="37" rx="1.5" fill="#88DAB5" stroke="#121C2D"/>
<rect x="259.5" y="297.5" width="37" height="41" rx="1.5" fill="white" stroke="#121C2D"/>
<rect x="276" y="307" width="16" height="2" rx="1" fill="#121C2D"/>
<path d="M267 320L263 316M267 316L263 320" stroke="#121C2D" stroke-linecap="round" stroke-linejoin="round"/>
<rect x="276" y="317" width="16" height="2" rx="1" fill="#121C2D"/>
<rect x="276" y="328" width="12" height="2" rx="1" fill="#121C2D"/>
<path d="M262.667 307.422L264.212 308.844L267.302 306" stroke="#88DAB5" stroke-linecap="round" stroke-linejoin="round"/>
<path d="M262.667 329.505L264.212 330.927L267.302 328.083" stroke="#88DAB5" stroke-linecap="round" stroke-linejoin="round"/>
</g>
<g filter="url(#filter2_d_209_1375)">
<rect x="285" y="155" width="90" height="89" rx="8" fill="white" shape-rendering="crispEdges"/>
<rect x="285.5" y="155.5" width="89" height="88" rx="7.5" stroke="white" stroke-opacity="0.3" shape-rendering="crispEdges"/>
<circle cx="330" cy="200" r="36" fill="#D7E7FA"/>
<rect x="306.5" y="180.5" width="47" height="30" rx="1.5" fill="white" stroke="#121C2D"/>
<path d="M342.469 192.719L344.812 195.036L342.469 197.354M339.656 197.354L337.312 195.036L339.656 192.719" stroke="#121C2D" stroke-linecap="round" stroke-linejoin="round"/>
<path d="M306.5 206.5H353.5V209C353.5 209.828 352.828 210.5 352 210.5H308C307.172 210.5 306.5 209.828 306.5 209V206.5Z" fill="white" stroke="#121C2D"/>
<rect x="325.5" y="210.5" width="10" height="7" fill="#88DAB5" stroke="#121C2D"/>
<rect x="322.5" y="217.5" width="16" height="2" rx="1" fill="white" stroke="#121C2D"/>
<rect x="310" y="185" width="9" height="1" rx="0.5" fill="#88DAB5"/>
<rect x="310" y="189" width="12" height="1" rx="0.5" fill="#88DAB5"/>
<rect x="310" y="193" width="16" height="1" rx="0.5" fill="#88DAB5"/>
<rect x="310" y="197" width="20" height="1" rx="0.5" fill="#88DAB5"/>
<rect x="310" y="201" width="24" height="1" rx="0.5" fill="#88DAB5"/>
</g>
<g filter="url(#filter3_d_209_1375)">
<rect x="236" y="35" width="89" height="90" rx="8" fill="white" shape-rendering="crispEdges"/>
<rect x="236.5" y="35.5" width="88" height="89" rx="7.5" stroke="white" stroke-opacity="0.3" shape-rendering="crispEdges"/>
<circle cx="281" cy="80" r="36" fill="#D7E7FA"/>
<path d="M300 78C300 67.5066 291.493 59 281 59C270.507 59 262 67.5066 262 78" stroke="#121C2D"/>
<path d="M263.5 58.5H297.5" stroke="#121C2D" stroke-linecap="round"/>
<path d="M280.5 67L276 74.5L271.277 83.4741C271.106 83.7982 271.126 84.1897 271.33 84.4945L272.845 86.7673C273.613 87.9193 274.259 89.148 274.773 90.4335L275.497 92.2428C275.801 93.0021 276.536 93.5 277.354 93.5H283.646C284.464 93.5 285.199 93.0021 285.503 92.2428L286.227 90.4335C286.741 89.148 287.387 87.9193 288.155 86.7673L289.661 84.5088C289.869 84.1965 289.885 83.7939 289.702 83.4662L280.5 67Z" fill="white"/>
<path d="M280.5 67L276 74.5L271.277 83.4741C271.106 83.7982 271.126 84.1897 271.33 84.4945L272.845 86.7673C273.613 87.9193 274.259 89.148 274.773 90.4335L275.497 92.2428C275.801 93.0021 276.536 93.5 277.354 93.5H283.646C284.464 93.5 285.199 93.0021 285.503 92.2428L286.227 90.4335C286.741 89.148 287.387 87.9193 288.155 86.7673L289.661 84.5088C289.869 84.1965 289.885 83.7939 289.702 83.4662L280.5 67ZM280.5 67V86.5" stroke="#121C2D" stroke-linecap="round"/>
<circle cx="280.5" cy="78.5" r="2" fill="white" stroke="#121C2D"/>
<rect x="274.5" y="93.5" width="12" height="3" rx="1.5" fill="white" stroke="#121C2D"/>
<rect x="276.5" y="96.5" width="8" height="7" rx="0.5" fill="#88DAB5" stroke="#121C2D"/>
<mask id="path-59-inside-1_209_1375" fill="white">
<rect x="278" y="56" width="5" height="5" rx="0.5"/>
</mask>
<rect x="278" y="56" width="5" height="5" rx="0.5" fill="#88DAB5" stroke="#121C2D" stroke-width="2" mask="url(#path-59-inside-1_209_1375)"/>
<mask id="path-60-inside-2_209_1375" fill="white">
<rect x="297" y="56" width="5" height="5" rx="0.5"/>
</mask>
<rect x="297" y="56" width="5" height="5" rx="0.5" fill="#88DAB5" stroke="#121C2D" stroke-width="2" mask="url(#path-60-inside-2_209_1375)"/>
<mask id="path-61-inside-3_209_1375" fill="white">
<rect x="297" y="76" width="5" height="5" rx="0.5"/>
</mask>
<rect x="297" y="76" width="5" height="5" rx="0.5" fill="#88DAB5" stroke="#121C2D" stroke-width="2" mask="url(#path-61-inside-3_209_1375)"/>
<mask id="path-62-inside-4_209_1375" fill="white">
<rect x="259" y="56" width="5" height="5" rx="0.5"/>
</mask>
<rect x="259" y="56" width="5" height="5" rx="0.5" fill="#88DAB5" stroke="#121C2D" stroke-width="2" mask="url(#path-62-inside-4_209_1375)"/>
<mask id="path-63-inside-5_209_1375" fill="white">
<rect x="259" y="77" width="5" height="5" rx="0.5"/>
</mask>
<rect x="259" y="77" width="5" height="5" rx="0.5" fill="#88DAB5" stroke="#121C2D" stroke-width="2" mask="url(#path-63-inside-5_209_1375)"/>
</g>
<g filter="url(#filter4_d_209_1375)">
<rect x="56" y="35" width="89" height="90" rx="8" fill="white" shape-rendering="crispEdges"/>
<rect x="56.5" y="35.5" width="88" height="89" rx="7.5" stroke="white" stroke-opacity="0.3" shape-rendering="crispEdges"/>
<circle cx="101" cy="80" r="36" fill="#D7E7FA"/>
<circle cx="92" cy="68" r="8.5" fill="white" stroke="#121C2D"/>
<path d="M92 77C84.8203 77 79 82.8203 79 90H105C105 82.8203 99.1797 77 92 77Z" fill="white" stroke="#121C2D"/>
<path d="M90.895 76.5H93.105C93.3597 76.5 93.5738 76.6916 93.6019 76.9448L94.3797 83.9448C94.4126 84.241 94.1807 84.5 93.8827 84.5H90.1173C89.8193 84.5 89.5874 84.241 89.6203 83.9448L90.3981 76.9448C90.4262 76.6916 90.6403 76.5 90.895 76.5Z" fill="#88DAB5" stroke="#121C2D"/>
<rect x="72.5" y="89.5" width="55" height="11" rx="1.5" fill="white" stroke="#121C2D"/>
<circle cx="115.161" cy="79.4194" r="7.91935" fill="#88DAB5" stroke="#121C2D"/>
<path d="M115.161 87.8387C108.445 87.8387 103 93.2835 103 100H127.323C127.323 93.2835 121.878 87.8387 115.161 87.8387Z" fill="#88DAB5" stroke="#121C2D"/>
</g>
<g filter="url(#filter5_d_209_1375)">
<rect x="56" y="274" width="89" height="91" rx="8" fill="white" shape-rendering="crispEdges"/>
<rect x="56.5" y="274.5" width="88" height="90" rx="7.5" stroke="white" stroke-opacity="0.3" shape-rendering="crispEdges"/>
<circle cx="101" cy="320" r="36" fill="#D7E7FA"/>
<path d="M100 340C88.9543 340 80 331.046 80 320C80 314.797 81.9869 310.058 85.2435 306.5M100 300C111.046 300 120 308.954 120 320C120 325.707 117.609 330.856 113.775 334.5" stroke="#121C2D" stroke-linecap="round"/>
<path d="M127 320C127 334.912 114.912 347 100 347C92.9757 347 86.5779 344.318 81.775 339.921M73 320C73 305.088 85.0883 293 100 293C107.705 293 114.656 296.227 119.575 301.404" stroke="#121C2D" stroke-linecap="round"/>
<path d="M108.008 317.02L107.669 316.827C107.616 316.797 107.59 316.782 107.564 316.766C107.311 316.611 107.098 316.397 106.942 316.14C106.926 316.114 106.911 316.088 106.881 316.034L106.881 316.034C106.851 315.981 106.835 315.954 106.821 315.927C106.682 315.66 106.607 315.363 106.602 315.061C106.602 315.034 106.602 315.006 106.603 314.956L106.603 314.938L106.61 314.542C106.62 313.892 106.626 313.567 106.537 313.275C106.458 313.017 106.326 312.78 106.15 312.578C105.952 312.351 105.677 312.188 105.127 311.865L105.124 311.863L104.667 311.593C104.117 311.27 103.842 311.108 103.55 311.046C103.292 310.991 103.026 310.994 102.768 311.053C102.478 311.119 102.207 311.285 101.666 311.617L101.662 311.619L101.334 311.82C101.282 311.852 101.255 311.868 101.229 311.882C100.971 312.029 100.683 312.111 100.388 312.12C100.358 312.121 100.328 312.121 100.268 312.121H100.267C100.207 312.121 100.177 312.121 100.147 312.12C99.8515 312.111 99.5621 312.029 99.3037 311.881C99.2786 311.867 99.2537 311.852 99.2054 311.822L99.1998 311.819L98.8697 311.616L98.8672 311.615C98.3225 311.28 98.0498 311.113 97.7584 311.046C97.5001 310.987 97.2322 310.985 96.9731 311.04C96.6803 311.103 96.4045 311.266 95.8534 311.593L95.4013 311.862C94.853 312.187 94.5792 312.35 94.3814 312.577C94.2064 312.779 94.0753 313.016 93.997 313.273C93.9085 313.564 93.9135 313.888 93.9242 314.536L93.9308 314.939C93.9318 315 93.9325 315.03 93.932 315.06C93.9276 315.363 93.8522 315.661 93.7121 315.928C93.6982 315.954 93.6833 315.981 93.6535 316.033L93.6535 316.033C93.6236 316.086 93.6087 316.113 93.5933 316.138C93.4368 316.396 93.2223 316.611 92.9675 316.767C92.9423 316.782 92.9164 316.797 92.8642 316.827L92.529 317.016L92.5289 317.017C91.9713 317.332 91.6925 317.49 91.4897 317.715C91.3102 317.915 91.1743 318.151 91.0916 318.408C90.9982 318.698 90.9989 319.024 91.0003 319.674L91.0003 319.677L91.0015 320.209L91.0015 320.215C91.003 320.859 91.0037 321.182 91.0971 321.469C91.1801 321.725 91.3153 321.959 91.4938 322.157C91.6952 322.381 91.9718 322.538 92.524 322.852L92.5259 322.853L92.8581 323.042L92.8626 323.045C92.9162 323.075 92.9437 323.091 92.9703 323.107C93.2227 323.263 93.435 323.477 93.5901 323.734C93.6069 323.761 93.6229 323.79 93.6551 323.847L93.6551 323.847C93.6869 323.904 93.7029 323.933 93.7176 323.961C93.8536 324.224 93.9271 324.516 93.932 324.814C93.9326 324.846 93.9321 324.879 93.931 324.944L93.9246 325.331L93.9246 325.332C93.9139 325.982 93.9085 326.306 93.9975 326.598C94.0762 326.856 94.2082 327.093 94.3841 327.295C94.583 327.523 94.8582 327.685 95.4094 328.01L95.8671 328.28C96.4167 328.604 96.692 328.765 96.9837 328.827C97.2419 328.882 97.5084 328.88 97.7656 328.821C98.0557 328.754 98.327 328.588 98.8689 328.256L98.8724 328.254L99.2004 328.053C99.2523 328.021 99.2784 328.006 99.3044 327.991C99.5624 327.844 99.8507 327.763 100.146 327.753C100.176 327.752 100.206 327.752 100.266 327.752C100.327 327.752 100.358 327.752 100.387 327.753C100.683 327.763 100.972 327.844 101.23 327.992C101.256 328.007 101.283 328.023 101.335 328.054L101.665 328.257L101.665 328.257C102.211 328.593 102.484 328.76 102.776 328.827C103.034 328.886 103.302 328.888 103.561 328.833C103.854 328.771 104.13 328.607 104.681 328.28L105.133 328.012C105.681 327.686 105.955 327.524 106.153 327.296C106.328 327.095 106.459 326.857 106.537 326.6C106.626 326.309 106.621 325.985 106.61 325.337L106.603 324.935L106.603 324.914C106.602 324.867 106.602 324.84 106.602 324.813C106.606 324.51 106.682 324.212 106.822 323.945C106.836 323.919 106.851 323.892 106.88 323.84C106.91 323.787 106.925 323.76 106.941 323.735C107.097 323.477 107.312 323.262 107.567 323.106C107.591 323.092 107.616 323.077 107.665 323.05L107.67 323.047L108.005 322.857C108.563 322.541 108.842 322.383 109.045 322.158C109.224 321.959 109.36 321.723 109.442 321.465C109.536 321.175 109.536 320.849 109.534 320.197L109.533 319.664C109.532 319.016 109.531 318.692 109.437 318.404C109.354 318.148 109.219 317.914 109.04 317.716C108.839 317.492 108.562 317.335 108.008 317.02Z" fill="white" stroke="#121C2D" stroke-width="2" stroke-linecap="round" stroke-linejoin="round"/>
<circle cx="87" cy="305" r="2.5" fill="#88DAB5" stroke="#121C2D"/>
<circle cx="113" cy="335" r="2.5" fill="#88DAB5" stroke="#121C2D"/>
<circle cx="127" cy="321" r="2.5" fill="#88DAB5" stroke="#121C2D"/>
<circle cx="73" cy="321" r="2.5" fill="#88DAB5" stroke="#121C2D"/>
</g>
<defs>
<filter id="filter0_d_209_1375" x="1" y="153" width="102" height="101" filterUnits="userSpaceOnUse" color-interpolation-filters="sRGB">
<feFlood flood-opacity="0" result="BackgroundImageFix"/>
<feColorMatrix in="SourceAlpha" type="matrix" values="0 0 0 0 0 0 0 0 0 0 0 0 0 0 0 0 0 0 127 0" result="hardAlpha"/>
<feOffset dy="4"/>
<feGaussianBlur stdDeviation="3"/>
<feComposite in2="hardAlpha" operator="out"/>
<feColorMatrix type="matrix" values="0 0 0 0 0 0 0 0 0 0 0 0 0 0 0 0 0 0 0.08 0"/>
<feBlend mode="normal" in2="BackgroundImageFix" result="effect1_dropShadow_209_1375"/>
<feBlend mode="normal" in="SourceGraphic" in2="effect1_dropShadow_209_1375" result="shape"/>
</filter>
<filter id="filter1_d_209_1375" x="230" y="272" width="101" height="103" filterUnits="userSpaceOnUse" color-interpolation-filters="sRGB">
<feFlood flood-opacity="0" result="BackgroundImageFix"/>
<feColorMatrix in="SourceAlpha" type="matrix" values="0 0 0 0 0 0 0 0 0 0 0 0 0 0 0 0 0 0 127 0" result="hardAlpha"/>
<feOffset dy="4"/>
<feGaussianBlur stdDeviation="3"/>
<feComposite in2="hardAlpha" operator="out"/>
<feColorMatrix type="matrix" values="0 0 0 0 0 0 0 0 0 0 0 0 0 0 0 0 0 0 0.08 0"/>
<feBlend mode="normal" in2="BackgroundImageFix" result="effect1_dropShadow_209_1375"/>
<feBlend mode="normal" in="SourceGraphic" in2="effect1_dropShadow_209_1375" result="shape"/>
</filter>
<filter id="filter2_d_209_1375" x="279" y="153" width="102" height="101" filterUnits="userSpaceOnUse" color-interpolation-filters="sRGB">
<feFlood flood-opacity="0" result="BackgroundImageFix"/>
<feColorMatrix in="SourceAlpha" type="matrix" values="0 0 0 0 0 0 0 0 0 0 0 0 0 0 0 0 0 0 127 0" result="hardAlpha"/>
<feOffset dy="4"/>
<feGaussianBlur stdDeviation="3"/>
<feComposite in2="hardAlpha" operator="out"/>
<feColorMatrix type="matrix" values="0 0 0 0 0 0 0 0 0 0 0 0 0 0 0 0 0 0 0.08 0"/>
<feBlend mode="normal" in2="BackgroundImageFix" result="effect1_dropShadow_209_1375"/>
<feBlend mode="normal" in="SourceGraphic" in2="effect1_dropShadow_209_1375" result="shape"/>
</filter>
<filter id="filter3_d_209_1375" x="230" y="33" width="101" height="102" filterUnits="userSpaceOnUse" color-interpolation-filters="sRGB">
<feFlood flood-opacity="0" result="BackgroundImageFix"/>
<feColorMatrix in="SourceAlpha" type="matrix" values="0 0 0 0 0 0 0 0 0 0 0 0 0 0 0 0 0 0 127 0" result="hardAlpha"/>
<feOffset dy="4"/>
<feGaussianBlur stdDeviation="3"/>
<feComposite in2="hardAlpha" operator="out"/>
<feColorMatrix type="matrix" values="0 0 0 0 0 0 0 0 0 0 0 0 0 0 0 0 0 0 0.08 0"/>
<feBlend mode="normal" in2="BackgroundImageFix" result="effect1_dropShadow_209_1375"/>
<feBlend mode="normal" in="SourceGraphic" in2="effect1_dropShadow_209_1375" result="shape"/>
</filter>
<filter id="filter4_d_209_1375" x="50" y="33" width="101" height="102" filterUnits="userSpaceOnUse" color-interpolation-filters="sRGB">
<feFlood flood-opacity="0" result="BackgroundImageFix"/>
<feColorMatrix in="SourceAlpha" type="matrix" values="0 0 0 0 0 0 0 0 0 0 0 0 0 0 0 0 0 0 127 0" result="hardAlpha"/>
<feOffset dy="4"/>
<feGaussianBlur stdDeviation="3"/>
<feComposite in2="hardAlpha" operator="out"/>
<feColorMatrix type="matrix" values="0 0 0 0 0 0 0 0 0 0 0 0 0 0 0 0 0 0 0.08 0"/>
<feBlend mode="normal" in2="BackgroundImageFix" result="effect1_dropShadow_209_1375"/>
<feBlend mode="normal" in="SourceGraphic" in2="effect1_dropShadow_209_1375" result="shape"/>
</filter>
<filter id="filter5_d_209_1375" x="50" y="272" width="101" height="103" filterUnits="userSpaceOnUse" color-interpolation-filters="sRGB">
<feFlood flood-opacity="0" result="BackgroundImageFix"/>
<feColorMatrix in="SourceAlpha" type="matrix" values="0 0 0 0 0 0 0 0 0 0 0 0 0 0 0 0 0 0 127 0" result="hardAlpha"/>
<feOffset dy="4"/>
<feGaussianBlur stdDeviation="3"/>
<feComposite in2="hardAlpha" operator="out"/>
<feColorMatrix type="matrix" values="0 0 0 0 0 0 0 0 0 0 0 0 0 0 0 0 0 0 0.08 0"/>
<feBlend mode="normal" in2="BackgroundImageFix" result="effect1_dropShadow_209_1375"/>
<feBlend mode="normal" in="SourceGraphic" in2="effect1_dropShadow_209_1375" result="shape"/>
</filter>
</defs>
</svg>
