<svg width="32" height="32" viewBox="0 0 32 32" fill="none" xmlns="http://www.w3.org/2000/svg">
<path d="M23.4134 23.96H8.58669C3.28002 23.96 1.66669 22.3466 1.66669 17.04V8.58663C1.66669 3.27996 3.28002 1.66663 8.58669 1.66663H23.4C28.7067 1.66663 30.32 3.27996 30.32 8.58663V17.0266C30.3334 22.3466 28.72 23.96 23.4134 23.96ZM8.58669 3.66663C4.40002 3.66663 3.66669 4.39996 3.66669 8.58663V17.0266C3.66669 21.2133 4.40002 21.9466 8.58669 21.9466H23.4C27.5867 21.9466 28.32 21.2133 28.32 17.0266V8.58663C28.32 4.39996 27.5867 3.66663 23.4 3.66663H8.58669Z" fill="white"/>
<path d="M16 30.3333C15.4533 30.3333 15 29.88 15 29.3333V22.96C15 22.4133 15.4533 21.96 16 21.96C16.5467 21.96 17 22.4133 17 22.96V29.3333C17 29.88 16.5467 30.3333 16 30.3333Z" fill="white"/>
<path d="M29.3334 18.3334H2.66669C2.12002 18.3334 1.66669 17.88 1.66669 17.3334C1.66669 16.7867 2.12002 16.3334 2.66669 16.3334H29.3334C29.88 16.3334 30.3334 16.7867 30.3334 17.3334C30.3334 17.88 29.88 18.3334 29.3334 18.3334Z" fill="white"/>
<path d="M22 30.3334H10C9.45333 30.3334 9 29.88 9 29.3334C9 28.7867 9.45333 28.3334 10 28.3334H22C22.5467 28.3334 23 28.7867 23 29.3334C23 29.88 22.5467 30.3334 22 30.3334Z" fill="white"/>
</svg>
