<svg width="1280" height="1270" viewBox="0 0 1280 1270" fill="none" xmlns="http://www.w3.org/2000/svg">
<g clip-path="url(#clip0_220_408)">
<path d="M0 0C0 0 389.942 20 640 20C890.058 20 1280 0 1280 0V1270C1280 1270 890.058 1230 640 1230C389.942 1230 0 1270 0 1270L0 0Z" fill="#121C2D"/>
<path d="M581.5 204.034C581.5 276.651 522.906 335.5 450.651 335.5C378.396 335.5 319.802 276.651 319.802 204.034C319.802 131.416 378.396 72.5674 450.651 72.5674C522.906 72.5674 581.5 131.416 581.5 204.034Z" stroke="#88DAB5" stroke-width="5"/>
<path d="M344.73 61.7152C344.73 72.3384 336.161 80.9305 325.615 80.9305C315.069 80.9305 306.5 72.3384 306.5 61.7152C306.5 51.0921 315.069 42.5 325.615 42.5C336.161 42.5 344.73 51.0921 344.73 61.7152Z" stroke="#88DAB5" stroke-width="5"/>
<circle cx="640" cy="1103" r="400" fill="url(#paint0_radial_220_408)" fill-opacity="0.3"/>
<circle cx="176.65" cy="774.091" r="2.34905" transform="rotate(-180 176.65 774.091)" fill="#88DAB5" fill-opacity="0.7"/>
<circle cx="142.198" cy="774.091" r="2.34905" transform="rotate(-180 142.198 774.091)" fill="#88DAB5" fill-opacity="0.7"/>
<circle cx="107.745" cy="774.091" r="2.34905" transform="rotate(-180 107.745 774.091)" fill="#88DAB5" fill-opacity="0.7"/>
<circle cx="73.2925" cy="774.091" r="2.34905" transform="rotate(-180 73.2925 774.091)" fill="#88DAB5" fill-opacity="0.7"/>
<circle cx="38.8397" cy="774.091" r="2.34905" transform="rotate(-180 38.8397 774.091)" fill="#88DAB5" fill-opacity="0.7"/>
<circle cx="176.651" cy="739.638" r="2.34905" transform="rotate(-180 176.651 739.638)" fill="#88DAB5" fill-opacity="0.7"/>
<circle cx="142.198" cy="739.638" r="2.34905" transform="rotate(-180 142.198 739.638)" fill="#88DAB5" fill-opacity="0.7"/>
<circle cx="107.745" cy="739.638" r="2.34905" transform="rotate(-180 107.745 739.638)" fill="#88DAB5" fill-opacity="0.7"/>
<circle cx="73.2925" cy="739.638" r="2.34905" transform="rotate(-180 73.2925 739.638)" fill="#88DAB5" fill-opacity="0.7"/>
<circle cx="38.8397" cy="739.638" r="2.34905" transform="rotate(-180 38.8397 739.638)" fill="#88DAB5" fill-opacity="0.7"/>
<circle cx="176.651" cy="705.185" r="2.34905" transform="rotate(-180 176.651 705.185)" fill="#88DAB5" fill-opacity="0.7"/>
<circle cx="142.198" cy="705.185" r="2.34905" transform="rotate(-180 142.198 705.185)" fill="#88DAB5" fill-opacity="0.7"/>
<circle cx="107.745" cy="705.185" r="2.34905" transform="rotate(-180 107.745 705.185)" fill="#88DAB5" fill-opacity="0.7"/>
<circle cx="73.2925" cy="705.185" r="2.34905" transform="rotate(-180 73.2925 705.185)" fill="#88DAB5" fill-opacity="0.7"/>
<circle cx="38.8397" cy="705.185" r="2.34905" transform="rotate(-180 38.8397 705.185)" fill="#88DAB5" fill-opacity="0.7"/>
<circle cx="176.651" cy="670.732" r="2.34905" transform="rotate(-180 176.651 670.732)" fill="#88DAB5" fill-opacity="0.7"/>
<circle cx="142.198" cy="670.732" r="2.34905" transform="rotate(-180 142.198 670.732)" fill="#88DAB5" fill-opacity="0.7"/>
<circle cx="107.745" cy="670.732" r="2.34905" transform="rotate(-180 107.745 670.732)" fill="#88DAB5" fill-opacity="0.7"/>
<circle cx="73.2925" cy="670.732" r="2.34905" transform="rotate(-180 73.2925 670.732)" fill="#88DAB5" fill-opacity="0.7"/>
<circle cx="38.8397" cy="670.732" r="2.34905" transform="rotate(-180 38.8397 670.732)" fill="#88DAB5" fill-opacity="0.7"/>
<circle cx="176.651" cy="636.28" r="2.34905" transform="rotate(-180 176.651 636.28)" fill="#88DAB5" fill-opacity="0.7"/>
<circle cx="142.198" cy="636.28" r="2.34905" transform="rotate(-180 142.198 636.28)" fill="#88DAB5" fill-opacity="0.7"/>
<circle cx="107.745" cy="636.28" r="2.34905" transform="rotate(-180 107.745 636.28)" fill="#88DAB5" fill-opacity="0.7"/>
<circle cx="73.2925" cy="636.28" r="2.34905" transform="rotate(-180 73.2925 636.28)" fill="#88DAB5" fill-opacity="0.7"/>
<circle cx="38.8397" cy="636.28" r="2.34905" transform="rotate(-180 38.8397 636.28)" fill="#88DAB5" fill-opacity="0.7"/>
<circle cx="176.651" cy="601.827" r="2.34905" transform="rotate(-180 176.651 601.827)" fill="#88DAB5" fill-opacity="0.7"/>
<circle cx="142.198" cy="601.827" r="2.34905" transform="rotate(-180 142.198 601.827)" fill="#88DAB5" fill-opacity="0.7"/>
<circle cx="107.745" cy="601.827" r="2.34905" transform="rotate(-180 107.745 601.827)" fill="#88DAB5" fill-opacity="0.7"/>
<circle cx="73.2925" cy="601.827" r="2.34905" transform="rotate(-180 73.2925 601.827)" fill="#88DAB5" fill-opacity="0.7"/>
<circle cx="38.8397" cy="601.827" r="2.34905" transform="rotate(-180 38.8397 601.827)" fill="#88DAB5" fill-opacity="0.7"/>
<circle cx="176.651" cy="567.374" r="2.34905" transform="rotate(-180 176.651 567.374)" fill="#88DAB5" fill-opacity="0.7"/>
<circle cx="142.198" cy="567.374" r="2.34905" transform="rotate(-180 142.198 567.374)" fill="#88DAB5" fill-opacity="0.7"/>
<circle cx="107.745" cy="567.374" r="2.34905" transform="rotate(-180 107.745 567.374)" fill="#88DAB5" fill-opacity="0.7"/>
<circle cx="73.2925" cy="567.374" r="2.34905" transform="rotate(-180 73.2925 567.374)" fill="#88DAB5" fill-opacity="0.7"/>
<circle cx="38.8399" cy="567.374" r="2.34905" transform="rotate(-180 38.8399 567.374)" fill="#88DAB5" fill-opacity="0.7"/>
<circle cx="176.651" cy="532.921" r="2.34905" transform="rotate(-180 176.651 532.921)" fill="#88DAB5" fill-opacity="0.7"/>
<circle cx="142.198" cy="532.921" r="2.34905" transform="rotate(-180 142.198 532.921)" fill="#88DAB5" fill-opacity="0.7"/>
<circle cx="107.745" cy="532.921" r="2.34905" transform="rotate(-180 107.745 532.921)" fill="#88DAB5" fill-opacity="0.7"/>
<circle cx="73.2925" cy="532.921" r="2.34905" transform="rotate(-180 73.2925 532.921)" fill="#88DAB5" fill-opacity="0.7"/>
<circle cx="38.8399" cy="532.921" r="2.34905" transform="rotate(-180 38.8399 532.921)" fill="#88DAB5" fill-opacity="0.7"/>
<circle cx="176.651" cy="498.468" r="2.34905" transform="rotate(-180 176.651 498.468)" fill="#88DAB5" fill-opacity="0.7"/>
<circle cx="142.198" cy="498.468" r="2.34905" transform="rotate(-180 142.198 498.468)" fill="#88DAB5" fill-opacity="0.7"/>
<circle cx="107.745" cy="498.468" r="2.34905" transform="rotate(-180 107.745 498.468)" fill="#88DAB5" fill-opacity="0.7"/>
<circle cx="73.2925" cy="498.468" r="2.34905" transform="rotate(-180 73.2925 498.468)" fill="#88DAB5" fill-opacity="0.7"/>
<circle cx="38.8399" cy="498.468" r="2.34905" transform="rotate(-180 38.8399 498.468)" fill="#88DAB5" fill-opacity="0.7"/>
<circle cx="176.651" cy="464.016" r="2.34905" transform="rotate(-180 176.651 464.016)" fill="#88DAB5" fill-opacity="0.7"/>
<circle cx="142.198" cy="464.016" r="2.34905" transform="rotate(-180 142.198 464.016)" fill="#88DAB5" fill-opacity="0.7"/>
<circle cx="107.745" cy="464.016" r="2.34905" transform="rotate(-180 107.745 464.016)" fill="#88DAB5" fill-opacity="0.7"/>
<circle cx="73.2925" cy="464.016" r="2.34905" transform="rotate(-180 73.2925 464.016)" fill="#88DAB5" fill-opacity="0.7"/>
<circle cx="38.8399" cy="464.016" r="2.34905" transform="rotate(-180 38.8399 464.016)" fill="#88DAB5" fill-opacity="0.7"/>
<circle cx="859.016" cy="701.49" r="2.34905" transform="rotate(-90 859.016 701.49)" fill="#88DAB5" fill-opacity="0.7"/>
<circle cx="859.016" cy="667.038" r="2.34905" transform="rotate(-90 859.016 667.038)" fill="#88DAB5" fill-opacity="0.7"/>
<circle cx="859.016" cy="632.585" r="2.34905" transform="rotate(-90 859.016 632.585)" fill="#88DAB5" fill-opacity="0.7"/>
<circle cx="859.016" cy="598.132" r="2.34905" transform="rotate(-90 859.016 598.132)" fill="#88DAB5" fill-opacity="0.7"/>
<circle cx="859.016" cy="563.679" r="2.34905" transform="rotate(-90 859.016 563.679)" fill="#88DAB5" fill-opacity="0.7"/>
<circle cx="893.469" cy="701.49" r="2.34905" transform="rotate(-90 893.469 701.49)" fill="#88DAB5" fill-opacity="0.7"/>
<circle cx="893.469" cy="667.038" r="2.34905" transform="rotate(-90 893.469 667.038)" fill="#88DAB5" fill-opacity="0.7"/>
<circle cx="893.469" cy="632.585" r="2.34905" transform="rotate(-90 893.469 632.585)" fill="#88DAB5" fill-opacity="0.7"/>
<circle cx="893.469" cy="598.132" r="2.34905" transform="rotate(-90 893.469 598.132)" fill="#88DAB5" fill-opacity="0.7"/>
<circle cx="893.469" cy="563.679" r="2.34905" transform="rotate(-90 893.469 563.679)" fill="#88DAB5" fill-opacity="0.7"/>
<circle cx="927.921" cy="701.49" r="2.34905" transform="rotate(-90 927.921 701.49)" fill="#88DAB5" fill-opacity="0.7"/>
<circle cx="927.921" cy="667.038" r="2.34905" transform="rotate(-90 927.921 667.038)" fill="#88DAB5" fill-opacity="0.7"/>
<circle cx="927.921" cy="632.585" r="2.34905" transform="rotate(-90 927.921 632.585)" fill="#88DAB5" fill-opacity="0.7"/>
<circle cx="927.921" cy="598.132" r="2.34905" transform="rotate(-90 927.921 598.132)" fill="#88DAB5" fill-opacity="0.7"/>
<circle cx="927.921" cy="563.679" r="2.34905" transform="rotate(-90 927.921 563.679)" fill="#88DAB5" fill-opacity="0.7"/>
<circle cx="962.374" cy="701.49" r="2.34905" transform="rotate(-90 962.374 701.49)" fill="#88DAB5" fill-opacity="0.7"/>
<circle cx="962.374" cy="667.038" r="2.34905" transform="rotate(-90 962.374 667.038)" fill="#88DAB5" fill-opacity="0.7"/>
<circle cx="962.374" cy="632.585" r="2.34905" transform="rotate(-90 962.374 632.585)" fill="#88DAB5" fill-opacity="0.7"/>
<circle cx="962.374" cy="598.132" r="2.34905" transform="rotate(-90 962.374 598.132)" fill="#88DAB5" fill-opacity="0.7"/>
<circle cx="962.374" cy="563.679" r="2.34905" transform="rotate(-90 962.374 563.679)" fill="#88DAB5" fill-opacity="0.7"/>
<circle cx="996.827" cy="701.49" r="2.34905" transform="rotate(-90 996.827 701.49)" fill="#88DAB5" fill-opacity="0.7"/>
<circle cx="996.827" cy="667.038" r="2.34905" transform="rotate(-90 996.827 667.038)" fill="#88DAB5" fill-opacity="0.7"/>
<circle cx="996.827" cy="632.585" r="2.34905" transform="rotate(-90 996.827 632.585)" fill="#88DAB5" fill-opacity="0.7"/>
<circle cx="996.827" cy="598.132" r="2.34905" transform="rotate(-90 996.827 598.132)" fill="#88DAB5" fill-opacity="0.7"/>
<circle cx="996.827" cy="563.679" r="2.34905" transform="rotate(-90 996.827 563.679)" fill="#88DAB5" fill-opacity="0.7"/>
<circle cx="1031.28" cy="701.49" r="2.34905" transform="rotate(-90 1031.28 701.49)" fill="#88DAB5" fill-opacity="0.7"/>
<circle cx="1031.28" cy="667.038" r="2.34905" transform="rotate(-90 1031.28 667.038)" fill="#88DAB5" fill-opacity="0.7"/>
<circle cx="1031.28" cy="632.585" r="2.34905" transform="rotate(-90 1031.28 632.585)" fill="#88DAB5" fill-opacity="0.7"/>
<circle cx="1031.28" cy="598.132" r="2.34905" transform="rotate(-90 1031.28 598.132)" fill="#88DAB5" fill-opacity="0.7"/>
<circle cx="1031.28" cy="563.679" r="2.34905" transform="rotate(-90 1031.28 563.679)" fill="#88DAB5" fill-opacity="0.7"/>
<circle cx="1065.73" cy="701.49" r="2.34905" transform="rotate(-90 1065.73 701.49)" fill="#88DAB5" fill-opacity="0.7"/>
<circle cx="1065.73" cy="667.038" r="2.34905" transform="rotate(-90 1065.73 667.038)" fill="#88DAB5" fill-opacity="0.7"/>
<circle cx="1065.73" cy="632.585" r="2.34905" transform="rotate(-90 1065.73 632.585)" fill="#88DAB5" fill-opacity="0.7"/>
<circle cx="1065.73" cy="598.132" r="2.34905" transform="rotate(-90 1065.73 598.132)" fill="#88DAB5" fill-opacity="0.7"/>
<circle cx="1065.73" cy="563.679" r="2.34905" transform="rotate(-90 1065.73 563.679)" fill="#88DAB5" fill-opacity="0.7"/>
<circle cx="1100.19" cy="701.49" r="2.34905" transform="rotate(-90 1100.19 701.49)" fill="#88DAB5" fill-opacity="0.7"/>
<circle cx="1100.19" cy="667.038" r="2.34905" transform="rotate(-90 1100.19 667.038)" fill="#88DAB5" fill-opacity="0.7"/>
<circle cx="1100.19" cy="632.585" r="2.34905" transform="rotate(-90 1100.19 632.585)" fill="#88DAB5" fill-opacity="0.7"/>
<circle cx="1100.19" cy="598.132" r="2.34905" transform="rotate(-90 1100.19 598.132)" fill="#88DAB5" fill-opacity="0.7"/>
<circle cx="1100.19" cy="563.679" r="2.34905" transform="rotate(-90 1100.19 563.679)" fill="#88DAB5" fill-opacity="0.7"/>
<circle cx="1134.64" cy="701.49" r="2.34905" transform="rotate(-90 1134.64 701.49)" fill="#88DAB5" fill-opacity="0.7"/>
<circle cx="1134.64" cy="667.038" r="2.34905" transform="rotate(-90 1134.64 667.038)" fill="#88DAB5" fill-opacity="0.7"/>
<circle cx="1134.64" cy="632.585" r="2.34905" transform="rotate(-90 1134.64 632.585)" fill="#88DAB5" fill-opacity="0.7"/>
<circle cx="1134.64" cy="598.132" r="2.34905" transform="rotate(-90 1134.64 598.132)" fill="#88DAB5" fill-opacity="0.7"/>
<circle cx="1134.64" cy="563.679" r="2.34905" transform="rotate(-90 1134.64 563.679)" fill="#88DAB5" fill-opacity="0.7"/>
<circle cx="1169.09" cy="701.49" r="2.34905" transform="rotate(-90 1169.09 701.49)" fill="#88DAB5" fill-opacity="0.7"/>
<circle cx="1169.09" cy="667.038" r="2.34905" transform="rotate(-90 1169.09 667.038)" fill="#88DAB5" fill-opacity="0.7"/>
<circle cx="1169.09" cy="632.585" r="2.34905" transform="rotate(-90 1169.09 632.585)" fill="#88DAB5" fill-opacity="0.7"/>
<circle cx="1169.09" cy="598.132" r="2.34905" transform="rotate(-90 1169.09 598.132)" fill="#88DAB5" fill-opacity="0.7"/>
<circle cx="1169.09" cy="563.679" r="2.34905" transform="rotate(-90 1169.09 563.679)" fill="#88DAB5" fill-opacity="0.7"/>
</g>
<defs>
<radialGradient id="paint0_radial_220_408" cx="0" cy="0" r="1" gradientUnits="userSpaceOnUse" gradientTransform="translate(640 1103) rotate(90) scale(400)">
<stop stop-color="#88DAB5"/>
<stop offset="1" stop-color="#88DAB5" stop-opacity="0"/>
</radialGradient>
<clipPath id="clip0_220_408">
<rect width="1280" height="1270" fill="white"/>
</clipPath>
</defs>
</svg>
