<svg width="32" height="32" viewBox="0 0 32 32" fill="none" xmlns="http://www.w3.org/2000/svg">
<g clip-path="url(#clip0_391_1402)">
<path d="M29.08 5.25329C27.0267 10.3733 21.88 17.3333 17.5733 20.7866L14.9467 22.8933C14.6133 23.1333 14.28 23.3466 13.9067 23.4933C13.9067 23.2533 13.8933 22.9866 13.8533 22.7333C13.7067 21.6133 13.2 20.5733 12.3067 19.68C11.4 18.7733 10.2933 18.24 9.16 18.0933C8.89333 18.08 8.62667 18.0533 8.36 18.08C8.50667 17.6666 8.73333 17.28 9.01333 16.96L11.0933 14.3333C14.5333 10.0266 21.52 4.85329 26.6267 2.81329C27.4133 2.51996 28.1733 2.73329 28.6533 3.22663C29.16 3.71996 29.4 4.47996 29.08 5.25329Z" stroke="white" stroke-width="1.5" stroke-linecap="round" stroke-linejoin="round"/>
<path d="M13.9067 23.4933C13.9067 24.96 13.3467 26.36 12.2933 27.4267C11.48 28.24 10.3733 28.8 9.05334 28.9733L5.77334 29.3333C3.98667 29.5333 2.45334 28.0133 2.66667 26.2L3.02667 22.92C3.34667 20 5.78667 18.1333 8.37334 18.08C8.64 18.0667 8.92 18.08 9.17334 18.0933C10.3067 18.24 11.4133 18.76 12.32 19.68C13.2133 20.5733 13.72 21.6133 13.8667 22.7333C13.88 22.9867 13.9067 23.24 13.9067 23.4933Z" stroke="white" stroke-width="1.5" stroke-linecap="round" stroke-linejoin="round"/>
<path d="M18.9867 19.2934C18.9867 15.8134 16.16 12.9867 12.68 12.9867" stroke="white" stroke-width="1.5" stroke-linecap="round" stroke-linejoin="round"/>
<path d="M26.8267 16.9734L27.8133 17.9467C29.8 19.9334 29.8 21.8934 27.8133 23.8801L23.8667 27.8267C21.9067 29.7867 19.92 29.7867 17.96 27.8267" stroke="white" stroke-width="1.5" stroke-linecap="round"/>
<path d="M4.14667 14.0133C2.18667 12.0267 2.18667 10.0667 4.14667 8.08L8.09333 4.13333C10.0533 2.17333 12.04 2.17333 14 4.13333L14.9867 5.12" stroke="white" stroke-width="1.5" stroke-linecap="round"/>
<path d="M15 5.1333L10.0667 10.0666" stroke="white" stroke-width="1.5" stroke-linecap="round"/>
<path d="M26.8267 16.9734L22.88 20.9067" stroke="white" stroke-width="1.5" stroke-linecap="round"/>
</g>
<defs>
<clipPath id="clip0_391_1402">
<rect width="32" height="32" fill="white"/>
</clipPath>
</defs>
</svg>
